<svg width="446" height="71" viewBox="0 0 446 71" fill="none" xmlns="http://www.w3.org/2000/svg">
<path d="M37.1848 3.00635H37.8279L37.6435 3.62214L33.0847 18.848L32.9825 19.1894H32.6259H20.7662H20.123L20.3074 18.5737L24.8662 3.34774L24.9684 3.00635H25.3249H37.1848Z" fill="black"/>
<path d="M42.94 20.4529H43.5832L43.3988 21.0686L39.8501 32.9201L39.7479 33.2613H39.3913H0.47888H0V32.7828V20.9314V20.4529H0.47888H42.94Z" fill="black"/>
<path d="M58.6932 20.7943L58.7954 20.4529H59.152H67.4306H67.9095V20.9314V32.7828V33.2613H67.4306H55.604H54.9609L55.1452 32.6456L58.6932 20.7943Z" fill="black"/>
<path d="M51.9441 39.2795L51.8419 39.6209H51.4853H39.6255H38.9824L39.1667 39.0051L49.8446 3.34139L49.9468 3H50.3033H62.1624H62.8056L62.6212 3.61569L51.9441 39.2795Z" fill="black"/>
<path d="M30.2017 70.9877H29.5586L29.743 70.3723L34.3018 55.1461L34.404 54.8047H34.7606H46.6203H47.2635L47.0792 55.4205L42.5203 70.6461L42.4181 70.9877H42.0615H30.2017Z" fill="black"/>
<path d="M11.8239 40.8657H12.4671L12.2828 41.4814L8.73458 53.3329L8.63237 53.6743H8.27579H0.47888H0V53.1957V41.3443V40.8657H0.47888H11.8239Z" fill="black"/>
<path d="M24.5806 53.6743H23.9375L24.1218 53.0586L27.6698 41.2071L27.772 40.8657H28.1286H67.5224H68.0013V41.3443V53.1957V53.6743H67.5224H24.5806Z" fill="black"/>
<path d="M15.542 34.708L15.6442 34.3667H16.0008H27.8602H28.5034L28.319 34.9824L17.6414 70.6458L17.5392 70.9875H17.1826H5.32282H4.67969L4.86404 70.3721L15.542 34.708Z" fill="black"/>
<path d="M401.033 65.0001V0.600098H412.625V24.9801H414.281C414.772 23.9988 415.539 23.0174 416.581 22.0361C417.624 21.0548 419.004 20.2574 420.721 19.6441C422.5 18.9694 424.739 18.6321 427.437 18.6321C430.995 18.6321 434.092 19.4601 436.729 21.1161C439.428 22.7108 441.513 24.9494 442.985 27.8321C444.457 30.6534 445.193 33.9654 445.193 37.7681V65.0001H433.601V38.6881C433.601 35.2534 432.743 32.6774 431.025 30.9601C429.369 29.2428 426.977 28.3841 423.849 28.3841C420.292 28.3841 417.532 29.5801 415.569 31.9721C413.607 34.3028 412.625 37.5841 412.625 41.8161V65.0001H401.033Z" fill="black"/>
<path d="M376.339 66.2881C370.389 66.2881 365.513 65.0001 361.711 62.4241C357.908 59.8481 355.608 56.1681 354.811 51.3841L365.483 48.6241C365.912 50.7708 366.617 52.4574 367.599 53.6841C368.641 54.9107 369.899 55.8001 371.371 56.3521C372.904 56.8427 374.56 57.0881 376.339 57.0881C379.037 57.0881 381.031 56.6281 382.319 55.7081C383.607 54.7268 384.251 53.5308 384.251 52.1201C384.251 50.7094 383.637 49.6361 382.411 48.9001C381.184 48.1028 379.221 47.4588 376.523 46.9681L373.947 46.5081C370.757 45.8948 367.844 45.0668 365.207 44.0241C362.569 42.9201 360.453 41.4174 358.859 39.5161C357.264 37.6147 356.467 35.1614 356.467 32.1561C356.467 27.6174 358.123 24.1521 361.435 21.7601C364.747 19.3067 369.101 18.0801 374.499 18.0801C379.589 18.0801 383.821 19.2147 387.195 21.4841C390.568 23.7534 392.776 26.7281 393.819 30.4081L383.055 33.7201C382.564 31.3894 381.552 29.7334 380.019 28.7521C378.547 27.7707 376.707 27.2801 374.499 27.2801C372.291 27.2801 370.604 27.6787 369.439 28.4761C368.273 29.2121 367.691 30.2547 367.691 31.6041C367.691 33.0761 368.304 34.1801 369.531 34.9161C370.757 35.5908 372.413 36.1121 374.499 36.4801L377.075 36.9401C380.509 37.5534 383.607 38.3814 386.367 39.4241C389.188 40.4054 391.396 41.8468 392.991 43.7481C394.647 45.5881 395.475 48.1028 395.475 51.2921C395.475 56.0761 393.727 59.7868 390.231 62.4241C386.796 65.0001 382.165 66.2881 376.339 66.2881Z" fill="black"/>
<path d="M323.327 66.2881C320.076 66.2881 317.163 65.7361 314.587 64.6321C312.011 63.4668 309.956 61.8108 308.423 59.6641C306.951 57.4561 306.215 54.7881 306.215 51.6601C306.215 48.5321 306.951 45.9254 308.423 43.8401C309.956 41.6934 312.042 40.0987 314.679 39.0561C317.378 37.9521 320.444 37.4001 323.879 37.4001H336.391V34.8241C336.391 32.6774 335.716 30.9294 334.367 29.5801C333.018 28.1694 330.871 27.4641 327.927 27.4641C325.044 27.4641 322.898 28.1387 321.487 29.4881C320.076 30.7761 319.156 32.4627 318.727 34.5481L308.055 30.9601C308.791 28.6294 309.956 26.5134 311.551 24.6121C313.207 22.6494 315.384 21.0854 318.083 19.9201C320.843 18.6934 324.186 18.0801 328.111 18.0801C334.122 18.0801 338.875 19.5827 342.371 22.5881C345.867 25.5934 347.615 29.9481 347.615 35.6521V52.6721C347.615 54.5121 348.474 55.4321 350.191 55.4321H353.871V65.0001H346.143C343.874 65.0001 342.003 64.4481 340.531 63.3441C339.059 62.2401 338.323 60.7681 338.323 58.9281V58.8361H336.575C336.33 59.5721 335.778 60.5534 334.919 61.7801C334.06 62.9454 332.711 63.9881 330.871 64.9081C329.031 65.8281 326.516 66.2881 323.327 66.2881ZM325.351 56.9041C328.602 56.9041 331.239 56.0148 333.263 54.2361C335.348 52.3961 336.391 49.9734 336.391 46.9681V46.0481H324.707C322.56 46.0481 320.874 46.5081 319.647 47.4281C318.42 48.3481 317.807 49.6361 317.807 51.2921C317.807 52.9481 318.451 54.2974 319.739 55.3401C321.027 56.3827 322.898 56.9041 325.351 56.9041Z" fill="black"/>
<path d="M257.068 65.0001V0.600098H268.66V24.9801H270.316C270.807 23.9988 271.574 23.0174 272.616 22.0361C273.659 21.0548 275.039 20.2574 276.756 19.6441C278.535 18.9694 280.774 18.6321 283.472 18.6321C287.03 18.6321 290.127 19.4601 292.764 21.1161C295.463 22.7108 297.548 24.9494 299.02 27.8321C300.492 30.6534 301.228 33.9654 301.228 37.7681V65.0001H289.636V38.6881C289.636 35.2534 288.778 32.6774 287.06 30.9601C285.404 29.2428 283.012 28.3841 279.884 28.3841C276.327 28.3841 273.567 29.5801 271.604 31.9721C269.642 34.3028 268.66 37.5841 268.66 41.8161V65.0001H257.068Z" fill="black"/>
<path d="M230.416 66.2881C226.307 66.2881 223.148 65.5828 220.94 64.1721C218.732 62.7614 217.107 61.1974 216.064 59.4801H214.408V65.0001H203V0.600098H214.592V24.6121H216.248C216.923 23.5081 217.812 22.4654 218.916 21.4841C220.081 20.5028 221.584 19.7054 223.424 19.0921C225.325 18.4174 227.656 18.0801 230.416 18.0801C234.096 18.0801 237.5 19.0001 240.628 20.8401C243.756 22.6188 246.271 25.2561 248.172 28.7521C250.073 32.2481 251.024 36.4801 251.024 41.4481V42.9201C251.024 47.8881 250.073 52.1201 248.172 55.6161C246.271 59.1121 243.756 61.7801 240.628 63.6201C237.5 65.3988 234.096 66.2881 230.416 66.2881ZM226.92 56.1681C230.477 56.1681 233.452 55.0334 235.844 52.7641C238.236 50.4334 239.432 47.0601 239.432 42.6441V41.7241C239.432 37.3081 238.236 33.9654 235.844 31.6961C233.513 29.3654 230.539 28.2001 226.92 28.2001C223.363 28.2001 220.388 29.3654 217.996 31.6961C215.604 33.9654 214.408 37.3081 214.408 41.7241V42.6441C214.408 47.0601 215.604 50.4334 217.996 52.7641C220.388 55.0334 223.363 56.1681 226.92 56.1681Z" fill="black"/>
<path d="M175.293 66.2881C170.754 66.2881 166.737 65.3374 163.241 63.4361C159.806 61.4734 157.108 58.7441 155.145 55.2481C153.244 51.6908 152.293 47.5201 152.293 42.7361V41.6321C152.293 36.8481 153.244 32.7081 155.145 29.2121C157.046 25.6547 159.714 22.9254 163.149 21.0241C166.584 19.0614 170.57 18.0801 175.109 18.0801C179.586 18.0801 183.481 19.0921 186.793 21.1161C190.105 23.0787 192.681 25.8387 194.521 29.3961C196.361 32.8921 197.281 36.9707 197.281 41.6321V45.5881H164.069C164.192 48.7161 165.357 51.2614 167.565 53.2241C169.773 55.1867 172.472 56.1681 175.661 56.1681C178.912 56.1681 181.304 55.4628 182.837 54.0521C184.37 52.6414 185.536 51.0774 186.333 49.3601L195.809 54.3281C194.95 55.9228 193.693 57.6707 192.037 59.5721C190.442 61.4121 188.296 63.0068 185.597 64.3561C182.898 65.6441 179.464 66.2881 175.293 66.2881ZM164.161 36.9401H185.505C185.26 34.3028 184.186 32.1867 182.285 30.5921C180.445 28.9974 178.022 28.2001 175.017 28.2001C171.889 28.2001 169.405 28.9974 167.565 30.5921C165.725 32.1867 164.59 34.3028 164.161 36.9401Z" fill="black"/>
<path d="M90.817 65.0002L84.377 19.3682H95.877L99.925 57.1802H101.581L107.469 19.3682H126.053L131.941 57.1802H133.597L137.645 19.3682H149.145L142.705 65.0002H123.477L117.589 27.1882H115.933L110.045 65.0002H90.817Z" fill="black"/>
</svg>
