<svg width="68" height="68" viewBox="0 0 68 68" fill="none" xmlns="http://www.w3.org/2000/svg">
<path d="M37.1848 0.00634766H37.8279L37.6435 0.622137L33.0847 15.848L32.9825 16.1894H32.6259H20.7662H20.123L20.3074 15.5737L24.8662 0.34774L24.9684 0.00634766H25.3249H37.1848Z" fill="black"/>
<path d="M42.94 17.4529H43.5832L43.3988 18.0686L39.8501 29.9201L39.7479 30.2613H39.3913H0.47888H0V29.7828V17.9314V17.4529H0.47888H42.94Z" fill="black"/>
<path d="M58.6932 17.7943L58.7954 17.4529H59.152H67.4306H67.9095V17.9314V29.7828V30.2613H67.4306H55.604H54.9609L55.1452 29.6456L58.6932 17.7943Z" fill="black"/>
<path d="M51.9441 36.2795L51.8419 36.6209H51.4853H39.6255H38.9824L39.1667 36.0051L49.8446 0.341393L49.9468 0H50.3033H62.1624H62.8056L62.6212 0.615691L51.9441 36.2795Z" fill="black"/>
<path d="M30.2017 67.9877H29.5586L29.743 67.3723L34.3018 52.1461L34.404 51.8047H34.7606H46.6203H47.2635L47.0792 52.4205L42.5203 67.6461L42.4181 67.9877H42.0615H30.2017Z" fill="black"/>
<path d="M11.8239 37.8657H12.4671L12.2828 38.4814L8.73458 50.3329L8.63237 50.6743H8.27579H0.47888H0V50.1957V38.3443V37.8657H0.47888H11.8239Z" fill="black"/>
<path d="M24.5806 50.6743H23.9375L24.1218 50.0586L27.6698 38.2071L27.772 37.8657H28.1286H67.5224H68.0013V38.3443V50.1957V50.6743H67.5224H24.5806Z" fill="black"/>
<path d="M15.542 31.708L15.6442 31.3667H16.0008H27.8602H28.5034L28.319 31.9824L17.6414 67.6458L17.5392 67.9875H17.1826H5.32282H4.67969L4.86404 67.3721L15.542 31.708Z" fill="black"/>
</svg>
